<?xml version="1.0" encoding="UTF-8" standalone="no"?>
<!-- Created with Inkscape (http://www.inkscape.org/) -->

<svg
   width="300mm"
   height="300mm"
   viewBox="0 0 300 300"
   version="1.1"
   id="svg1"
   xml:space="preserve"
   sodipodi:docname="JellifyFinalGradientTealPurpleFinal.svg"
   inkscape:version="1.4.2 (f4327f4, 2025-05-13)"
   xmlns:inkscape="http://www.inkscape.org/namespaces/inkscape"
   xmlns:sodipodi="http://sodipodi.sourceforge.net/DTD/sodipodi-0.dtd"
   xmlns:xlink="http://www.w3.org/1999/xlink"
   xmlns="http://www.w3.org/2000/svg"
   xmlns:svg="http://www.w3.org/2000/svg"><sodipodi:namedview
     id="namedview1"
     pagecolor="#ffffff"
     bordercolor="#000000"
     borderopacity="0.25"
     inkscape:showpageshadow="2"
     inkscape:pageopacity="0.0"
     inkscape:pagecheckerboard="0"
     inkscape:deskcolor="#d1d1d1"
     inkscape:document-units="mm"
     inkscape:zoom="0.70710678"
     inkscape:cx="445.47727"
     inkscape:cy="512.65242"
     inkscape:window-width="2560"
     inkscape:window-height="1361"
     inkscape:window-x="-9"
     inkscape:window-y="-9"
     inkscape:window-maximized="1"
     inkscape:current-layer="svg1"
     showgrid="false" /><defs
     id="defs1"><linearGradient
       id="linearGradient1"
       inkscape:collect="always"><stop
         style="stop-color:#00dbb9;stop-opacity:1;"
         offset="0"
         id="stop2" /><stop
         style="stop-color:#7317ff;stop-opacity:1;"
         offset="1"
         id="stop1" /></linearGradient><inkscape:path-effect
       effect="mirror_symmetry"
       start_point="36.829795,103.65226"
       end_point="163.35938,103.65226"
       center_point="100.09459,103.65226"
       id="path-effect27"
       is_visible="true"
       lpeversion="1.2"
       lpesatellites=""
       mode="Y"
       discard_orig_path="false"
       fuse_paths="false"
       oposite_fuse="false"
       split_items="true"
       split_open="false"
       link_styles="false" /><inkscape:path-effect
       effect="mirror_symmetry"
       start_point="0,150"
       end_point="300,150"
       center_point="150,150"
       id="path-effect26"
       is_visible="true"
       lpeversion="1.2"
       lpesatellites=""
       mode="horizontal"
       discard_orig_path="false"
       fuse_paths="false"
       oposite_fuse="false"
       split_items="false"
       split_open="false"
       link_styles="false" /><inkscape:path-effect
       effect="powerstroke"
       message=""
       id="path-effect25"
       is_visible="true"
       lpeversion="1.3"
       scale_width="1"
       interpolator_type="CentripetalCatmullRom"
       interpolator_beta="0.2"
       start_linecap_type="zerowidth"
       end_linecap_type="zerowidth"
       offset_points="1,2.5"
       linejoin_type="round"
       miter_limit="4"
       not_jump="false"
       sort_points="true" /><inkscape:path-effect
       effect="mirror_symmetry"
       start_point="0,150"
       end_point="300,150"
       center_point="150,150"
       id="path-effect24"
       is_visible="true"
       lpeversion="1.2"
       lpesatellites=""
       mode="horizontal"
       discard_orig_path="false"
       fuse_paths="false"
       oposite_fuse="false"
       split_items="false"
       split_open="false"
       link_styles="false" /><inkscape:path-effect
       effect="powerstroke"
       message=""
       id="path-effect23"
       is_visible="true"
       lpeversion="1.3"
       scale_width="1"
       interpolator_type="CentripetalCatmullRom"
       interpolator_beta="0.2"
       start_linecap_type="butt"
       end_linecap_type="zerowidth"
       offset_points="0.28721364,1.9659181 | 1.0065447,1.3281153 | 1.7656209,0.14729167"
       linejoin_type="round"
       miter_limit="4"
       not_jump="false"
       sort_points="true" /><inkscape:path-effect
       effect="powerstroke"
       message=""
       id="path-effect22"
       is_visible="true"
       lpeversion="1.3"
       scale_width="1"
       interpolator_type="CentripetalCatmullRom"
       interpolator_beta="0.2"
       start_linecap_type="zerowidth"
       end_linecap_type="round"
       offset_points="0.021811409,4.5200294 | 2.9894369,3.0532151 | 4.0214422,4.3410551"
       linejoin_type="round"
       miter_limit="4"
       not_jump="false"
       sort_points="true" /><inkscape:path-effect
       effect="powerstroke"
       message=""
       id="path-effect21"
       is_visible="true"
       lpeversion="1.3"
       scale_width="1"
       interpolator_type="CentripetalCatmullRom"
       interpolator_beta="0.2"
       start_linecap_type="zerowidth"
       end_linecap_type="round"
       offset_points="0,3.0010829 | 1.5006767,3.0586652 | 2.7911139,4.8447845"
       linejoin_type="round"
       miter_limit="4"
       not_jump="false"
       sort_points="true" /><inkscape:path-effect
       effect="powerstroke"
       message=""
       id="path-effect20"
       is_visible="true"
       lpeversion="1.3"
       scale_width="1"
       interpolator_type="CentripetalCatmullRom"
       interpolator_beta="0.2"
       start_linecap_type="zerowidth"
       end_linecap_type="round"
       offset_points="0.065755614,3.9759006 | 2.5006233,4.1433183 | 4.7821816,4.2678689"
       linejoin_type="round"
       miter_limit="4"
       not_jump="false"
       sort_points="true" /><inkscape:path-effect
       effect="powerstroke"
       message=""
       id="path-effect19"
       is_visible="true"
       lpeversion="1.3"
       scale_width="1"
       interpolator_type="CentripetalCatmullRom"
       interpolator_beta="0.2"
       start_linecap_type="zerowidth"
       end_linecap_type="round"
       offset_points="0.046321001,3.1112262 | 1.5105021,3.3915097 | 3.5871741,4.0865502"
       linejoin_type="round"
       miter_limit="4"
       not_jump="false"
       sort_points="true" /><inkscape:path-effect
       effect="powerstroke"
       message=""
       id="path-effect18"
       is_visible="true"
       lpeversion="1.3"
       scale_width="1"
       interpolator_type="CentripetalCatmullRom"
       interpolator_beta="0.2"
       start_linecap_type="zerowidth"
       end_linecap_type="zerowidth"
       offset_points="0.2,2.5 | 1,2.5 | 1.8,2.5"
       linejoin_type="round"
       miter_limit="4"
       not_jump="false"
       sort_points="true" /><inkscape:path-effect
       effect="powerstroke"
       message=""
       id="path-effect17"
       is_visible="true"
       lpeversion="1.3"
       scale_width="1"
       interpolator_type="CentripetalCatmullRom"
       interpolator_beta="0.2"
       start_linecap_type="zerowidth"
       end_linecap_type="zerowidth"
       offset_points="0.69542096,1.5137821 | 1.999296,4.5220552 | 3.574709,1.3221339"
       linejoin_type="round"
       miter_limit="4"
       not_jump="false"
       sort_points="true" /><inkscape:path-effect
       effect="powerstroke"
       message=""
       id="path-effect16"
       is_visible="true"
       lpeversion="1.3"
       scale_width="1"
       interpolator_type="CentripetalCatmullRom"
       interpolator_beta="0.2"
       start_linecap_type="zerowidth"
       end_linecap_type="zerowidth"
       offset_points="0.2,2.5 | 1.0010114,5.1044674 | 1.8,2.5"
       linejoin_type="round"
       miter_limit="4"
       not_jump="false"
       sort_points="true" /><inkscape:path-effect
       effect="powerstroke"
       message=""
       id="path-effect14"
       is_visible="true"
       lpeversion="1.3"
       scale_width="1"
       interpolator_type="CentripetalCatmullRom"
       interpolator_beta="0.2"
       start_linecap_type="zerowidth"
       end_linecap_type="butt"
       offset_points="0.34651289,2.842816 | 1,5.8779234 | 0.20052903,2.327192"
       linejoin_type="round"
       miter_limit="4"
       not_jump="false"
       sort_points="true" /><inkscape:path-effect
       effect="mirror_symmetry"
       start_point="0,150"
       end_point="300,150"
       center_point="150,150"
       id="path-effect8"
       is_visible="true"
       lpeversion="1.2"
       lpesatellites=""
       mode="horizontal"
       discard_orig_path="false"
       fuse_paths="false"
       oposite_fuse="false"
       split_items="false"
       split_open="false"
       link_styles="false" /><inkscape:path-effect
       effect="mirror_symmetry"
       start_point="0,150"
       end_point="300,150"
       center_point="150,150"
       id="path-effect7"
       is_visible="true"
       lpeversion="1.2"
       lpesatellites=""
       mode="horizontal"
       discard_orig_path="false"
       fuse_paths="false"
       oposite_fuse="false"
       split_items="false"
       split_open="false"
       link_styles="false" /><inkscape:path-effect
       effect="mirror_symmetry"
       start_point="14.80014,150"
       end_point="276.48117,150"
       center_point="145.64065,150"
       id="path-effect4"
       is_visible="true"
       lpeversion="1.2"
       lpesatellites=""
       mode="horizontal"
       discard_orig_path="false"
       fuse_paths="false"
       oposite_fuse="false"
       split_items="false"
       split_open="false"
       link_styles="false" /><inkscape:path-effect
       effect="mirror_symmetry"
       start_point="0,150"
       end_point="300,150"
       center_point="150,150"
       id="path-effect1"
       is_visible="true"
       lpeversion="1.2"
       lpesatellites=""
       mode="horizontal"
       discard_orig_path="false"
       fuse_paths="false"
       oposite_fuse="false"
       split_items="false"
       split_open="false"
       link_styles="false" /><inkscape:path-effect
       effect="spiro"
       id="path-effect15"
       is_visible="true"
       lpeversion="1" /><inkscape:path-effect
       effect="spiro"
       id="path-effect13"
       is_visible="true"
       lpeversion="1" /><inkscape:path-effect
       effect="spiro"
       id="path-effect12"
       is_visible="true"
       lpeversion="1" /><inkscape:path-effect
       effect="spiro"
       id="path-effect11"
       is_visible="true"
       lpeversion="1" /><inkscape:path-effect
       effect="spiro"
       id="path-effect10"
       is_visible="true"
       lpeversion="1" /><inkscape:path-effect
       effect="mirror_symmetry"
       start_point="0,150"
       end_point="300,150"
       center_point="150,150"
       id="path-effect9"
       is_visible="true"
       lpeversion="1.2"
       lpesatellites=""
       mode="horizontal"
       discard_orig_path="false"
       fuse_paths="false"
       oposite_fuse="false"
       split_items="false"
       split_open="false"
       link_styles="false" /><inkscape:path-effect
       effect="mirror_symmetry"
       start_point="14.80014,150"
       end_point="276.48117,150"
       center_point="145.64065,150"
       id="path-effect5"
       is_visible="true"
       lpeversion="1.2"
       lpesatellites=""
       mode="horizontal"
       discard_orig_path="false"
       fuse_paths="false"
       oposite_fuse="false"
       split_items="false"
       split_open="false"
       link_styles="false" /><inkscape:path-effect
       effect="mirror_symmetry"
       start_point="0,150"
       end_point="300,150"
       center_point="150,150"
       id="path-effect3"
       is_visible="true"
       lpeversion="1.2"
       lpesatellites=""
       mode="horizontal"
       discard_orig_path="false"
       fuse_paths="false"
       oposite_fuse="false"
       split_items="false"
       split_open="false"
       link_styles="false" /><inkscape:path-effect
       effect="mirror_symmetry"
       start_point="0,150"
       end_point="300,150"
       center_point="150,150"
       id="path-effect2"
       is_visible="true"
       lpeversion="1.2"
       lpesatellites=""
       mode="horizontal"
       discard_orig_path="false"
       fuse_paths="false"
       oposite_fuse="false"
       split_items="false"
       split_open="false"
       link_styles="false" /><inkscape:path-effect
       effect="mirror_symmetry"
       start_point="0,150"
       end_point="300,150"
       center_point="150,150"
       id="path-effect6"
       is_visible="true"
       lpeversion="1.2"
       lpesatellites=""
       mode="horizontal"
       discard_orig_path="false"
       fuse_paths="false"
       oposite_fuse="false"
       split_items="false"
       split_open="false"
       link_styles="false" /><linearGradient
       inkscape:collect="always"
       xlink:href="#linearGradient1"
       id="linearGradient2"
       x1="76.596825"
       y1="82.716858"
       x2="233.49379"
       y2="239.61383"
       gradientUnits="userSpaceOnUse"
       gradientTransform="matrix(1.1180445,0,0,1.1180445,-23.347585,-30.190224)" /></defs><path
     id="path6"
     style="display:inline;fill:url(#linearGradient2);fill-rule:nonzero;stroke:none;stroke-width:6.33371;stroke-linecap:round"
     d="M 132.42608,20.981312 C 118.51246,20.911283 83.233511,23.746074 56.360365,51.654305 45.796,62.625558 29.55089,83.905814 26.58811,113.29033 c -7.40294,73.42144 52.764147,103.89842 72.788054,79.38036 -36.463868,13.92446 -66.671402,-28.89748 -59.6722,-76.99187 3.473754,-23.869592 17.814027,-42.416674 28.164335,-53.036571 6.067777,-6.225821 25.589544,-24.085966 53.223751,-28.03376 40.2294,-5.747136 90.97538,13.064823 77.70773,59.122749 23.93052,-19.1854 -0.16561,-72.416675 -66.3737,-72.749926 z m 33.61844,27.660523 c -0.15637,0.873109 17.57063,4.677552 20.26801,22.43059 2.06149,13.422789 -2.18647,27.390333 -4.63596,33.964525 -4.8986,13.14736 -13.61719,27.52365 -27.22475,41.0988 -13.60757,13.57515 -27.791,22.7016 -42.0741,27.88703 -6.56165,2.38218 -20.400716,6.449 -33.757671,4.28356 -17.395471,-2.78877 -21.23873,-19.91698 -22.558854,-19.68101 -1.335432,0.23968 1.561315,20.72272 21.171639,25.99425 14.891942,4.02256 30.768266,0.18731 38.009456,-2.07186 3.62148,-1.12988 7.23511,-2.50103 10.82155,-4.11196 3.28495,3.59755 13.04938,10.79723 28.88307,3.60756 0.58109,2.54687 1.67998,5.8919 2.57742,9.75615 1.93279,11.93762 2.38159,21.49289 9.97511,31.68005 5.5257,6.03215 9.50278,13.04102 12.97768,20.37001 3.44066,7.25698 4.53197,18.68518 0.0145,28.1854 -2.77917,5.84432 5.98727,10.01289 8.76645,4.16857 5.97041,-12.55594 5.17179,-26.78287 -0.5015,-37.49929 -3.14998,-8.32268 -8.2272,-12.94231 -13.28804,-22.87489 -6.63164,-8.89346 -4.70435,-15.72057 -5.5061,-25.77123 -0.44898,-6.67531 -2.19296,-12.13481 -4.06054,-14.75266 0.19433,-0.14943 0.38902,-0.30124 0.58471,-0.45471 1.94031,2.828 5.48286,6.55225 8.99522,10.35414 7.5628,8.40093 14.55322,17.47623 18.46481,28.18628 1.518,4.63827 2.34922,9.61912 3.86468,14.68334 1.10607,3.69475 3.66449,10.51609 8.48217,15.14497 7.13321,6.86804 17.79854,8.73118 26.96605,4.73364 5.52038,-2.45974 1.90681,-10.74731 -3.65205,-8.37588 -5.2181,2.27539 -12.0543,1.54567 -16.93836,-3.04193 -3.28244,-3.09429 -5.44418,-8.22123 -6.4883,-11.17515 -1.64816,-4.66496 -2.82379,-9.69781 -4.76079,-14.66484 -3.7344,-10.0023 -9.91217,-18.14002 -19.62958,-30.68165 -3.13054,-4.28151 -6.1771,-8.57628 -8.6116,-10.99431 1.35116,-1.29249 2.77537,-2.72541 4.10849,-4.14373 1.91368,1.00791 4.53363,2.08915 7.10652,4.00276 4.82027,3.82167 8.01938,9.20222 11.40914,14.23845 10.08919,15.44711 18.1641,20.56112 23.16435,23.07769 6.45911,3.25828 13.22974,4.50847 18.15975,8.01303 3.4288,2.68495 6.28676,6.8256 7.36535,11.09888 1.39967,6.19967 10.69763,4.11044 9.31069,-2.09209 -1.94969,-6.42602 -5.77756,-12.73634 -11.22309,-16.73845 -6.30294,-4.42247 -13.52343,-5.69332 -19.43373,-8.62604 -10.31999,-5.13635 -16.42496,-15.39067 -18.9484,-19.85606 -3.34284,-6.50737 -6.64541,-13.11375 -12.00827,-18.21925 -1.78269,-1.66064 -3.39523,-2.77163 -4.84457,-3.47873 3.88041,0.45662 9.55226,0.99509 15.85042,2.96162 7.55765,3.29282 10.5626,3.71024 27.95346,22.32139 2.96137,3.83614 8.24352,8.31628 12.57159,12.51787 6.5578,6.54831 14.58539,11.59384 23.63927,13.70922 7.01883,1.65857 9.51992,-8.86135 2.50578,-10.5396 -3.75877,-0.89381 -13.19573,-3.56655 -20.73312,-9.29971 -4.14644,-3.27043 -7.80617,-7.35297 -11.01163,-11.12083 -3.20553,-3.76786 -6.69155,-8.66951 -11.25314,-13.31172 -6.05619,-5.99911 -13.20575,-10.43792 -20.5985,-13.19385 -7.71091,-2.87457 -13.18338,-3.36271 -16.65987,-2.88594 2.80508,-6.13646 6.82252,-19.22387 -3.87276,-28.95935 1.60309,-3.63734 2.92801,-7.23174 3.99583,-10.75048 2.20765,-7.27471 5.84933,-23.021753 1.71828,-37.800883 -5.09913,-18.326582 -23.61986,-22.082312 -25.4062,-21.301692 z m -42.4311,5.940061 C 110.65172,59.753012 97.989474,68.444707 86.893063,79.556601 75.796648,90.668498 66.949595,103.19833 62.007446,116.18441 53.923889,137.42491 54.944325,192.4134 113.91851,166.16575 75.517716,170.15678 68.460798,144.04326 77.97804,117.18106 81.454571,107.36863 88.179713,97.792328 96.699944,89.272088 105.2202,80.751833 114.89444,74.29118 124.60891,70.549601 159.9886,57.537934 176.68266,66.263104 173.59418,106.49009 202.03524,38.745967 138.47627,48.6523 123.61342,54.581896 Z m 17.95926,44.352112 c -8.23301,-0.24878 -18.1321,6.306662 -25.70189,14.852052 -10.09307,11.39384 -16.044796,26.32531 -8.38453,33.38155 7.66026,7.05625 22.51622,-0.78205 33.23133,-12.15734 10.71512,-11.37531 17.28889,-26.28767 8.38453,-33.38098 -2.22609,-1.773332 -4.7851,-2.612352 -7.52944,-2.695282 z"
     sodipodi:nodetypes="cssscsssccsssscccsssscsccsccccccccscscscccscsccccsscccccsccccccccscccsssccscscssss" /></svg>
